<?xml version="1.0" standalone="no"?><!DOCTYPE svg PUBLIC "-//W3C//DTD SVG 1.1//EN" "http://www.w3.org/Graphics/SVG/1.1/DTD/svg11.dtd"><svg t="1711345219590" class="icon" viewBox="0 0 1024 1024" version="1.1" xmlns="http://www.w3.org/2000/svg" p-id="12171" xmlns:xlink="http://www.w3.org/1999/xlink" width="200" height="200"><path d="M0 0m186.181818 0l651.636364 0q186.181818 0 186.181818 186.181818l0 651.636364q0 186.181818-186.181818 186.181818l-651.636364 0q-186.181818 0-186.181818-186.181818l0-651.636364q0-186.181818 186.181818-186.181818Z" fill="#176F58" p-id="12172"></path><path d="M457.541818 581.306182l100.538182 29.858909a40.261818 40.261818 0 0 1 27.508364 48.64 41.495273 41.495273 0 0 1-47.732364 30.487273l-86.504727-16.081455a14.592 14.592 0 0 0-16.686546 10.356364 12.194909 12.194909 0 0 0 8.378182 15.080727l1.024 0.256 59.415273 11.52a188.648727 188.648727 0 0 0 135.261091-24.832l84.596363-52.410182a30.208 30.208 0 0 1 40.820364 8.564364 31.394909 31.394909 0 0 1-5.981091 42.053818L665.6 760.692364a217.483636 217.483636 0 0 1-181.829818 44.823272l-78.382546-16.174545a128 128 0 0 0-46.498909-0.954182l-97.745454 15.941818a32 32 0 0 1-37.143273-31.534545v-107.636364c0-13.195636 8.098909-25.041455 20.410182-29.835636l130.327273-50.618182a128 128 0 0 1 82.804363-3.351273v-0.046545z m297.984-307.781818l2.094546 2.048a154.996364 154.996364 0 0 1 0 217.041454l-140.148364 142.894546a72.331636 72.331636 0 0 0-45.125818-53.271273l-5.143273-1.745455-100.538182-29.858909a160 160 0 0 0-95.138909 1.28l-8.331636 2.932364-25.925818 10.007273-70.865455-72.238546a154.996364 154.996364 0 0 1 0-217.018182 149.061818 149.061818 0 0 1 212.829091 0L512 308.992l32.768-33.396364a149.061818 149.061818 0 0 1 210.757818-2.071272z" fill="#FFFFFF" p-id="12173"></path></svg>