<?xml version="1.0" standalone="no"?><!DOCTYPE svg PUBLIC "-//W3C//DTD SVG 1.1//EN" "http://www.w3.org/Graphics/SVG/1.1/DTD/svg11.dtd"><svg t="1711345277254" class="icon" viewBox="0 0 1792 1024" version="1.1" xmlns="http://www.w3.org/2000/svg" p-id="14032" xmlns:xlink="http://www.w3.org/1999/xlink" width="350" height="200"><path d="M512 0h768a512 512 0 1 1 0 1024H512A512 512 0 1 1 512 0z" fill="#1E826E" p-id="14033"></path><path d="M566.528 261.12c-12.672-23.936-43.648-56.32-69.696-78.848l-45.056 26.752c26.048 24.64 54.912 59.84 67.584 83.072l47.168-30.976z m4.928 374.528c-25.344-28.16-74.624-68.992-118.272-100.672a1053.44 1053.44 0 0 0 105.6-125.312l-56.32-23.232c-16.896 26.752-42.24 60.544-66.88 90.112v-119.68h134.464V296.32H435.584V176.64H371.52v119.68H227.2v60.544h144.32v188.672l-50.688 38.656c-39.04 29.312-75.904 55.936-103.488 74.688l30.976 52.096 38.656-28.8c26.944-20.416 55.936-42.752 84.544-64.832v131.648c0 10.56-4.224 14.08-14.784 14.784l-73.92-0.704c7.744 15.488 16.896 41.536 19.008 57.024l28.608-0.256c35.2-0.64 59.264-3.136 75.584-11.008 21.12-9.152 29.568-26.048 29.568-59.84v-154.88c35.904 28.864 71.104 61.248 90.112 84.48l45.76-42.944zM241.984 419.52c27.456 36.608 57.024 86.592 68.992 118.272l51.392-26.048c-11.968-31.68-43.648-79.552-72.512-115.456l-47.872 23.232z m522.368-48.576c-9.856 75.328-26.752 142.208-51.392 199.232a873.344 873.344 0 0 1-56.32-176c2.816-7.04 4.928-15.488 7.04-23.232h100.672z m102.08 0v-61.248h-185.856c9.856-39.424 16.896-80.256 23.232-122.496l-64.768-9.856c-16.192 125.312-47.872 243.584-104.192 316.8 14.08 9.856 40.128 35.2 49.984 47.168 12.672-17.6 25.344-38.72 36.608-60.544 14.784 56.32 33.088 109.824 55.616 157.696-39.424 59.84-92.224 104.896-164.032 131.648 16.896 13.376 38.72 37.312 47.872 54.208 63.36-27.456 111.936-68.992 150.656-121.088 30.976 48.576 67.584 89.408 112.64 119.68 9.856-18.304 32.384-45.056 47.168-57.728-48.576-28.864-88.704-71.808-121.792-125.312 38.016-74.624 61.248-166.144 74.624-268.928h42.24z m162.624 190.784h114.752v81.664l-87.296 18.112c-9.344 1.92-18.496 3.84-27.456 5.824v-105.6z m114.752-292.864v88.704h-114.752V268.864h114.752z m0 235.136h-114.752V414.592h114.752v89.408z m95.04 118.272l-34.496 7.744V209.728h-233.728v469.568l-49.984 9.152 11.968 67.584 191.168-45.376 121.408-29.248-6.336-59.136z m155.584-290.048c1.408-49.28 1.408-101.376 1.408-154.176h-64.064l-0.192 78.4c-0.192 25.792-0.512 51.136-1.216 75.776h-104.896v61.952h102.784c-9.856 164.736-43.648 299.904-171.072 380.864 15.488 11.968 35.904 33.792 45.76 49.984 140.096-92.928 177.408-247.104 188.672-430.848h93.632l-3.328 117.312c-5.376 155.072-12.864 219.392-25.536 236.096a24.128 24.128 0 0 1-20.48 10.688l-35.392-0.384c-16-0.32-35.712-1.024-56.064-2.56 10.56 17.6 17.6 44.352 19.008 62.656l27.328 0.896c26.944 0.64 52.032 0.512 68.416-1.6 23.232-3.52 38.72-9.856 53.504-30.976 20.736-27.904 27.776-116.096 34.24-357.568l2.368-96.512h-154.88z" fill="#FFFFFF" p-id="14034"></path></svg>